<svg id="svg" version="1.1" width="400" height="400" xmlns="http://www.w3.org/2000/svg" xmlns:xlink="http://www.w3.org/1999/xlink" style="display: block;"><g id="svgg"><path id="path0" d="" stroke="none" fill="#000000" fill-rule="evenodd"></path><path id="path1" d="M251.200 54.238 C 245.753 56.597,244.650 61.451,247.970 68.449 C 254.223 81.628,255.028 95.955,250.076 105.916 C 247.958 110.178,247.780 110.278,245.382 108.541 C 220.004 90.159,198.491 88.398,176.800 102.928 C 164.819 110.953,156.782 120.148,139.326 145.800 C 136.482 149.980,133.071 154.930,131.747 156.800 C 120.074 173.285,108.549 190.323,103.203 199.000 C 98.994 205.830,91.600 218.052,91.600 218.179 C 91.600 218.256,90.910 219.462,90.067 220.859 C 89.224 222.257,87.846 224.660,87.007 226.200 C 86.167 227.740,84.682 230.440,83.706 232.200 C 81.657 235.898,71.365 256.528,70.236 259.200 C 69.818 260.190,69.054 261.945,68.538 263.100 C 66.197 268.341,65.682 269.549,64.830 271.800 C 64.331 273.120,63.766 274.560,63.575 275.000 C 52.265 301.112,55.688 328.329,71.455 337.661 C 88.318 347.643,108.343 344.865,148.131 327.027 C 156.398 323.322,176.878 312.443,183.726 308.120 C 184.565 307.591,185.825 306.831,186.526 306.432 C 187.756 305.732,190.420 304.087,197.591 299.600 C 205.005 294.961,222.244 283.372,233.000 275.797 C 235.860 273.782,240.090 270.857,242.400 269.296 C 244.710 267.735,247.590 265.760,248.800 264.908 C 250.010 264.056,253.070 261.939,255.600 260.204 C 287.671 238.204,300.966 223.598,305.853 205.000 C 306.762 201.541,306.905 189.530,306.079 186.000 C 303.616 175.465,298.998 165.477,292.352 156.306 C 289.591 152.496,289.658 152.368,296.061 149.153 C 300.612 146.867,310.649 145.897,316.490 147.178 C 323.825 148.786,327.309 149.983,332.597 152.710 C 340.224 156.644,347.974 151.557,346.301 143.715 C 345.102 138.094,322.669 122.053,310.894 118.398 C 308.275 117.585,308.212 117.312,309.831 113.756 C 315.676 100.913,323.552 89.232,333.292 78.963 C 338.310 73.671,338.824 70.012,335.138 65.824 C 330.955 61.072,326.858 61.284,321.233 66.545 C 310.002 77.048,296.620 85.977,284.644 90.959 C 283.020 91.634,282.000 91.328,282.000 90.164 C 282.000 89.492,278.996 82.423,277.680 80.000 C 274.033 73.280,272.558 70.967,268.361 65.381 C 260.430 54.826,256.193 52.075,251.200 54.238 M212.504 113.835 C 225.745 116.657,245.386 131.671,266.615 155.200 C 290.315 181.467,293.472 200.769,276.925 218.232 C 273.498 221.848,262.951 230.185,247.279 241.664 C 240.446 246.669,238.769 247.869,231.025 253.291 L 227.450 255.794 222.025 255.773 C 208.212 255.721,194.997 249.443,179.967 235.795 C 175.553 231.786,170.209 232.005,166.891 236.331 C 163.631 240.582,164.098 244.113,168.474 248.302 C 178.684 258.075,192.984 266.799,204.500 270.282 C 205.901 270.705,205.835 270.762,198.200 275.679 C 196.660 276.670,193.780 278.526,191.800 279.801 C 189.820 281.077,186.490 283.151,184.400 284.410 C 182.310 285.669,179.430 287.414,178.000 288.289 C 164.621 296.470,137.841 310.795,126.200 315.996 C 125.100 316.487,123.250 317.319,122.088 317.845 C 120.927 318.370,119.748 318.800,119.468 318.800 C 119.189 318.800,118.789 318.952,118.580 319.138 C 118.371 319.323,115.950 320.211,113.200 321.111 C 79.010 332.297,67.267 316.905,81.988 280.200 C 84.608 273.668,93.796 254.692,99.623 243.779 C 100.791 241.591,101.939 239.397,102.174 238.903 C 102.796 237.595,103.261 237.971,104.308 240.629 C 108.589 251.499,118.042 264.527,122.650 265.908 C 129.081 267.835,135.656 260.509,133.024 254.349 C 132.707 253.607,131.162 251.560,129.590 249.800 C 118.338 237.197,114.813 224.644,119.025 212.177 C 120.127 208.915,120.956 207.533,129.806 194.200 C 139.064 180.253,139.389 179.777,151.064 163.200 C 158.386 152.803,167.380 140.842,167.892 140.821 C 168.163 140.809,168.462 141.205,168.556 141.700 C 171.846 159.007,181.761 177.333,196.479 193.312 C 201.927 199.226,205.766 200.049,210.255 196.263 C 215.012 192.252,214.332 187.809,207.849 180.535 C 195.145 166.281,189.019 155.123,185.708 140.200 C 184.889 136.508,184.778 123.301,185.548 121.082 C 187.464 115.554,202.102 111.619,212.504 113.835 " stroke="none" fill="#ffffff" fill-rule="evenodd"></path><path id="path2" d="M24.900 0.291 C 23.965 0.376,23.200 0.616,23.200 0.823 C 23.200 1.030,22.660 1.200,22.000 1.200 C 21.340 1.200,20.800 1.380,20.800 1.600 C 20.800 1.820,20.440 2.000,20.000 2.000 C 19.560 2.000,19.200 2.180,19.200 2.400 C 19.200 2.620,18.840 2.800,18.400 2.800 C 17.960 2.800,17.600 2.980,17.600 3.200 C 17.600 3.420,17.240 3.600,16.800 3.600 C 16.360 3.600,16.000 3.780,16.000 4.000 C 16.000 4.220,15.775 4.403,15.500 4.407 C 13.986 4.429,4.429 13.986,4.407 15.500 C 4.403 15.775,4.220 16.000,4.000 16.000 C 3.780 16.000,3.600 16.360,3.600 16.800 C 3.600 17.240,3.420 17.600,3.200 17.600 C 2.980 17.600,2.800 17.960,2.800 18.400 C 2.800 18.840,2.620 19.200,2.400 19.200 C 2.180 19.200,2.000 19.560,2.000 20.000 C 2.000 20.440,1.820 20.800,1.600 20.800 C 1.380 20.800,1.200 21.325,1.200 21.967 C 1.200 22.608,0.975 23.208,0.700 23.300 C -0.036 23.545,-0.036 376.455,0.700 376.700 C 0.975 376.792,1.200 377.392,1.200 378.033 C 1.200 378.675,1.380 379.200,1.600 379.200 C 1.820 379.200,2.000 379.560,2.000 380.000 C 2.000 380.440,2.180 380.800,2.400 380.800 C 2.620 380.800,2.800 381.160,2.800 381.600 C 2.800 382.040,2.980 382.400,3.200 382.400 C 3.420 382.400,3.600 382.760,3.600 383.200 C 3.600 383.640,3.780 384.000,4.000 384.000 C 4.220 384.000,4.400 384.320,4.400 384.712 C 4.400 385.103,4.760 385.683,5.200 386.000 C 5.640 386.317,6.000 386.807,6.000 387.088 C 6.000 387.370,6.180 387.600,6.400 387.600 C 6.620 387.600,6.800 387.792,6.800 388.026 C 6.800 388.668,12.438 394.000,13.116 394.000 C 13.285 394.000,13.683 394.360,14.000 394.800 C 14.317 395.240,14.897 395.600,15.288 395.600 C 15.680 395.600,16.000 395.780,16.000 396.000 C 16.000 396.220,16.360 396.400,16.800 396.400 C 17.240 396.400,17.600 396.580,17.600 396.800 C 17.600 397.020,17.960 397.200,18.400 397.200 C 18.840 397.200,19.200 397.380,19.200 397.600 C 19.200 397.820,19.560 398.000,20.000 398.000 C 20.440 398.000,20.800 398.180,20.800 398.400 C 20.800 398.620,21.325 398.800,21.967 398.800 C 22.608 398.800,23.208 399.025,23.300 399.300 C 23.545 400.036,376.455 400.036,376.700 399.300 C 376.792 399.025,377.392 398.800,378.033 398.800 C 378.675 398.800,379.200 398.620,379.200 398.400 C 379.200 398.180,379.560 398.000,380.000 398.000 C 380.440 398.000,380.800 397.820,380.800 397.600 C 380.800 397.380,381.160 397.200,381.600 397.200 C 382.040 397.200,382.400 397.020,382.400 396.800 C 382.400 396.580,382.760 396.400,383.200 396.400 C 383.640 396.400,384.000 396.220,384.000 396.000 C 384.000 395.780,384.320 395.600,384.712 395.600 C 385.103 395.600,385.683 395.240,386.000 394.800 C 386.317 394.360,386.807 394.000,387.088 394.000 C 387.370 394.000,387.600 393.820,387.600 393.600 C 387.600 393.380,387.794 393.200,388.032 393.200 C 388.270 393.200,389.530 392.134,390.832 390.832 C 392.134 389.530,393.200 388.270,393.200 388.032 C 393.200 387.794,393.380 387.600,393.600 387.600 C 393.820 387.600,394.000 387.370,394.000 387.088 C 394.000 386.807,394.360 386.317,394.800 386.000 C 395.240 385.683,395.600 385.103,395.600 384.712 C 395.600 384.320,395.780 384.000,396.000 384.000 C 396.220 384.000,396.400 383.640,396.400 383.200 C 396.400 382.760,396.580 382.400,396.800 382.400 C 397.020 382.400,397.200 382.040,397.200 381.600 C 397.200 381.160,397.380 380.800,397.600 380.800 C 397.820 380.800,398.000 380.440,398.000 380.000 C 398.000 379.560,398.180 379.200,398.400 379.200 C 398.620 379.200,398.800 378.675,398.800 378.033 C 398.800 377.392,399.025 376.792,399.300 376.700 C 400.036 376.455,400.036 23.545,399.300 23.300 C 399.025 23.208,398.800 22.608,398.800 21.967 C 398.800 21.325,398.620 20.800,398.400 20.800 C 398.180 20.800,398.000 20.440,398.000 20.000 C 398.000 19.560,397.820 19.200,397.600 19.200 C 397.380 19.200,397.200 18.840,397.200 18.400 C 397.200 17.960,397.020 17.600,396.800 17.600 C 396.580 17.600,396.400 17.240,396.400 16.800 C 396.400 16.360,396.220 16.000,396.000 16.000 C 395.780 16.000,395.600 15.680,395.600 15.288 C 395.600 14.897,395.240 14.317,394.800 14.000 C 394.360 13.683,394.000 13.285,394.000 13.116 C 394.000 12.438,388.668 6.800,388.026 6.800 C 387.792 6.800,387.600 6.620,387.600 6.400 C 387.600 6.180,387.370 6.000,387.088 6.000 C 386.807 6.000,386.317 5.640,386.000 5.200 C 385.683 4.760,385.103 4.400,384.712 4.400 C 384.320 4.400,384.000 4.220,384.000 4.000 C 384.000 3.780,383.640 3.600,383.200 3.600 C 382.760 3.600,382.400 3.420,382.400 3.200 C 382.400 2.980,382.040 2.800,381.600 2.800 C 381.160 2.800,380.800 2.620,380.800 2.400 C 380.800 2.180,380.440 2.000,380.000 2.000 C 379.560 2.000,379.200 1.820,379.200 1.600 C 379.200 1.380,378.675 1.200,378.033 1.200 C 377.392 1.200,376.792 0.975,376.700 0.700 C 376.543 0.229,30.008 -0.173,24.900 0.291 M257.851 54.251 C 260.356 55.440,267.823 64.082,272.670 71.400 C 274.151 73.637,275.256 75.534,277.680 80.000 C 278.996 82.423,282.000 89.492,282.000 90.164 C 282.000 91.328,283.020 91.634,284.644 90.959 C 296.620 85.977,310.002 77.048,321.233 66.545 C 326.858 61.284,330.955 61.072,335.138 65.824 C 338.824 70.012,338.310 73.671,333.292 78.963 C 323.552 89.232,315.676 100.913,309.831 113.756 C 308.212 117.312,308.275 117.585,310.894 118.398 C 322.669 122.053,345.102 138.094,346.301 143.715 C 347.974 151.557,340.224 156.644,332.597 152.710 C 327.309 149.983,323.825 148.786,316.490 147.178 C 310.649 145.897,300.612 146.867,296.061 149.153 C 289.658 152.368,289.591 152.496,292.352 156.306 C 297.118 162.882,302.110 172.462,304.179 179.000 C 306.267 185.602,306.594 187.798,306.591 195.200 C 306.583 217.398,293.281 234.355,255.600 260.204 C 253.070 261.939,250.010 264.056,248.800 264.908 C 247.590 265.760,244.710 267.735,242.400 269.296 C 240.090 270.857,235.860 273.782,233.000 275.797 C 222.244 283.372,205.005 294.961,197.591 299.600 C 190.420 304.087,187.756 305.732,186.526 306.432 C 185.825 306.831,184.565 307.591,183.726 308.120 C 176.878 312.443,156.398 323.322,148.131 327.027 C 108.343 344.865,88.318 347.643,71.455 337.661 C 55.688 328.329,52.265 301.112,63.575 275.000 C 63.766 274.560,64.331 273.120,64.830 271.800 C 65.682 269.549,66.197 268.341,68.538 263.100 C 69.054 261.945,69.818 260.190,70.236 259.200 C 71.365 256.528,81.657 235.898,83.706 232.200 C 84.682 230.440,86.167 227.740,87.007 226.200 C 87.846 224.660,89.224 222.257,90.067 220.859 C 90.910 219.462,91.600 218.256,91.600 218.179 C 91.600 218.052,98.994 205.830,103.203 199.000 C 108.549 190.323,120.074 173.285,131.747 156.800 C 133.071 154.930,136.482 149.980,139.326 145.800 C 156.782 120.148,164.819 110.953,176.800 102.928 C 198.491 88.398,220.004 90.159,245.382 108.541 C 247.780 110.278,247.958 110.178,250.076 105.916 C 255.028 95.955,254.223 81.628,247.970 68.449 C 245.137 62.477,245.324 59.089,248.663 55.922 C 251.041 53.667,255.075 52.934,257.851 54.251 M202.400 113.075 C 196.132 113.521,186.599 118.050,185.548 121.082 C 184.778 123.301,184.889 136.508,185.708 140.200 C 189.019 155.123,195.145 166.281,207.849 180.535 C 214.332 187.809,215.012 192.252,210.255 196.263 C 205.766 200.049,201.927 199.226,196.479 193.312 C 181.761 177.333,171.846 159.007,168.556 141.700 C 168.462 141.205,168.163 140.809,167.892 140.821 C 167.380 140.842,158.386 152.803,151.064 163.200 C 139.389 179.777,139.064 180.253,129.806 194.200 C 120.956 207.533,120.127 208.915,119.025 212.177 C 114.813 224.644,118.338 237.197,129.590 249.800 C 131.162 251.560,132.707 253.607,133.024 254.349 C 135.656 260.509,129.081 267.835,122.650 265.908 C 118.042 264.527,108.589 251.499,104.308 240.629 C 103.261 237.971,102.796 237.595,102.174 238.903 C 101.939 239.397,100.791 241.591,99.623 243.779 C 93.796 254.692,84.608 273.668,81.988 280.200 C 67.267 316.905,79.010 332.297,113.200 321.111 C 115.950 320.211,118.371 319.323,118.580 319.138 C 118.789 318.952,119.189 318.800,119.468 318.800 C 119.748 318.800,120.927 318.370,122.088 317.845 C 123.250 317.319,125.100 316.487,126.200 315.996 C 132.940 312.984,146.906 305.833,159.200 299.099 C 162.901 297.071,175.244 289.974,178.000 288.289 C 179.430 287.414,182.310 285.669,184.400 284.410 C 186.490 283.151,189.820 281.077,191.800 279.801 C 193.780 278.526,196.660 276.670,198.200 275.679 C 205.835 270.762,205.901 270.705,204.500 270.282 C 192.984 266.799,178.684 258.075,168.474 248.302 C 164.098 244.113,163.631 240.582,166.891 236.331 C 170.209 232.005,175.553 231.786,179.967 235.795 C 194.997 249.443,208.212 255.721,222.025 255.773 L 227.450 255.794 231.025 253.291 C 238.769 247.869,240.446 246.669,247.279 241.664 C 273.330 222.582,280.071 216.506,283.962 208.600 C 292.768 190.709,285.405 173.789,256.015 144.379 C 231.749 120.097,217.841 111.977,202.400 113.075 " stroke="none" fill="#f5832d" fill-rule="evenodd"></path></g></svg>